<svg xmlns="http://www.w3.org/2000/svg" width="393" height="147" fill="none" viewBox="0 0 393 147">
  <path fill="#000" d="M316.993 81.245V29.878h25.126c3.248 0 6.218.673 8.909 2.018 2.738 1.346 4.895 3.295 6.473 5.847 1.624 2.506 2.436 5.568 2.436 9.188 0 3.619-.835 6.705-2.506 9.257-1.67 2.552-3.897 4.5-6.681 5.846-2.784 1.3-5.87 1.95-9.257 1.95h-17.192v-9.676h14.407c1.949 0 3.62-.626 5.012-1.879 1.438-1.253 2.158-3.109 2.158-5.568 0-2.552-.72-4.362-2.158-5.429-1.392-1.114-3.039-1.67-4.942-1.67h-8.422v41.483h-13.363Zm32.782-23.735 11.693 23.735h-14.616L335.924 57.51h13.851Zm-12.667 54.36c-7.703 0-14.918-1.439-21.647-4.316-6.728-2.877-12.644-6.867-17.748-11.971-5.104-5.105-9.095-11.02-11.972-17.749-2.877-6.728-4.315-13.944-4.315-21.646 0-7.703 1.438-14.918 4.315-21.647 2.877-6.728 6.868-12.644 11.972-17.748 5.104-5.104 11.02-9.095 17.748-11.972C322.19 1.944 329.405.506 337.108.506c7.702 0 14.918 1.438 21.646 4.315 6.728 2.877 12.644 6.868 17.749 11.972 5.104 5.104 9.094 11.02 11.971 17.748 2.877 6.729 4.315 13.944 4.315 21.647 0 7.702-1.438 14.918-4.315 21.646-2.877 6.728-6.867 12.644-11.971 17.749-5.105 5.104-11.021 9.094-17.749 11.971-6.728 2.877-13.944 4.316-21.646 4.316Zm0-14.687c7.609 0 14.5-1.832 20.671-5.498 6.218-3.712 11.16-8.654 14.826-14.825 3.665-6.218 5.498-13.109 5.498-20.672 0-7.564-1.856-14.431-5.568-20.603-3.666-6.217-8.607-11.16-14.825-14.825-6.172-3.712-13.039-5.568-20.602-5.568-7.517 0-14.385 1.856-20.603 5.568-6.217 3.666-11.159 8.608-14.825 14.825-3.666 6.172-5.499 13.04-5.499 20.603 0 7.563 1.833 14.454 5.499 20.672 3.666 6.171 8.608 11.113 14.825 14.825 6.218 3.666 13.086 5.498 20.603 5.498ZM272.677 52.36h-30.485c-.557-3.945-1.694-7.448-3.411-10.51-1.717-3.11-3.921-5.754-6.612-7.935-2.691-2.18-5.8-3.851-9.327-5.011-3.48-1.16-7.262-1.74-11.345-1.74-7.378 0-13.804 1.832-19.28 5.498-5.475 3.62-9.721 8.91-12.737 15.87-3.016 6.913-4.524 15.312-4.524 25.196 0 10.161 1.508 18.7 4.524 25.613 3.062 6.914 7.331 12.134 12.807 15.661 5.475 3.526 11.809 5.289 19.001 5.289 4.037 0 7.772-.533 11.206-1.6 3.48-1.068 6.566-2.622 9.257-4.664a26.865 26.865 0 0 0 6.682-7.586c1.81-2.97 3.063-6.357 3.759-10.162l30.485.139c-.788 6.542-2.761 12.853-5.916 18.932-3.109 6.032-7.308 11.438-12.598 16.217-5.243 4.733-11.507 8.491-18.792 11.276-7.239 2.737-15.429 4.106-24.57 4.106-12.714 0-24.082-2.877-34.105-8.631-9.976-5.753-17.865-14.082-23.665-24.987-5.754-10.904-8.631-24.105-8.631-39.603 0-15.545 2.924-28.77 8.77-39.674 5.847-10.904 13.782-19.21 23.804-24.917C186.997 3.383 198.273.506 210.801.506c8.259 0 15.916 1.16 22.969 3.48 7.099 2.32 13.387 5.707 18.862 10.162 5.475 4.408 9.93 9.814 13.364 16.217 3.48 6.404 5.707 13.735 6.681 21.995ZM134.381 73.728c0 15.544-2.947 28.768-8.84 39.673-5.846 10.904-13.827 19.233-23.943 24.987-10.069 5.707-21.39 8.561-33.966 8.561-12.667 0-24.036-2.877-34.105-8.631-10.069-5.753-18.027-14.082-23.873-24.987C3.807 102.427.884 89.226.884 73.728c0-15.545 2.923-28.77 8.77-39.674C15.5 23.15 23.458 14.844 33.527 9.137 43.597 3.383 54.965.506 67.632.506c12.575 0 23.897 2.877 33.966 8.63 10.116 5.708 18.097 14.014 23.943 24.918 5.893 10.904 8.84 24.129 8.84 39.674Zm-30.555 0c0-10.07-1.508-18.561-4.525-25.475-2.97-6.914-7.169-12.157-12.598-15.73-5.429-3.573-11.786-5.36-19.07-5.36-7.286 0-13.643 1.787-19.072 5.36-5.429 3.573-9.651 8.816-12.667 15.73-2.97 6.914-4.455 15.405-4.455 25.475 0 10.069 1.485 18.56 4.455 25.474 3.016 6.914 7.238 12.157 12.667 15.73 5.43 3.573 11.786 5.359 19.071 5.359 7.285 0 13.642-1.786 19.071-5.359 5.43-3.573 9.629-8.816 12.598-15.73 3.017-6.914 4.525-15.405 4.525-25.474Z"/>
</svg>
